<?xml version="1.0" encoding="UTF-8"?>
<svg width="21px" height="20px" viewBox="0 0 21 20" version="1.1" xmlns="http://www.w3.org/2000/svg" xmlns:xlink="http://www.w3.org/1999/xlink">
    <!-- Generator: Sketch 42 (36781) - http://www.bohemiancoding.com/sketch -->
    <title>github</title>
    <desc>Created with Sketch.</desc>
    <defs></defs>
    <g id="Welcome" stroke="none" stroke-width="1" fill="none" fill-rule="evenodd">
        <g id="Desktop" transform="translate(-946.000000, -15.000000)" fill="#FFFFFF">
            <path d="M956.252128,15 C950.59105,15 946,19.5904205 946,25.2533868 C946,29.7833822 948.937542,33.6260419 953.011831,34.9818304 C953.524815,35.0762447 953.711755,34.7596422 953.711755,34.4877292 C953.711755,34.2441405 953.702943,33.5996059 953.697908,32.7442129 C950.845968,33.3635703 950.244235,31.3695415 950.244235,31.3695415 C949.777829,30.1849574 949.105599,29.8696139 949.105599,29.8696139 C948.174675,29.2338913 949.176095,29.2464799 949.176095,29.2464799 C950.20521,29.3188641 950.746519,30.30329 950.746519,30.30329 C951.661078,31.869937 953.146529,31.417378 953.730638,31.1549064 C953.823794,30.4927479 954.088783,30.0408184 954.381467,29.784641 C952.104825,29.525946 949.711109,28.6460053 949.711109,24.7171139 C949.711109,23.5979904 950.110796,22.6821722 950.76666,21.9658829 C950.660916,21.7065584 950.309066,20.6635957 950.867369,19.2524175 C950.867369,19.2524175 951.727797,18.9767279 953.686578,20.3035628 C954.504206,20.0757097 955.381629,19.9624126 956.253387,19.9580066 C957.124516,19.9624126 958.001309,20.0757097 958.820195,20.3035628 C960.777717,18.9767279 961.636887,19.2524175 961.636887,19.2524175 C962.196449,20.6635957 961.844598,21.7065584 961.739484,21.9658829 C962.396607,22.6821722 962.793147,23.5979904 962.793147,24.7171139 C962.793147,28.6560761 960.395654,29.5227989 958.112089,29.7764585 C958.479675,30.0930609 958.807607,30.7187126 958.807607,31.6748142 C958.807607,33.045709 958.795018,34.1516145 958.795018,34.4877292 C958.795018,34.7621599 958.98007,35.0812801 959.499978,34.981201 C963.57112,33.6222653 966.506144,29.7821233 966.506144,25.2533868 C966.506144,19.5904205 961.915094,15 956.252128,15" id="github"></path>
        </g>
    </g>
</svg>