<?xml version="1.0" encoding="UTF-8"?>
<svg width="23px" height="19px" viewBox="0 0 23 19" version="1.1" xmlns="http://www.w3.org/2000/svg" xmlns:xlink="http://www.w3.org/1999/xlink">
    <!-- Generator: Sketch 42 (36781) - http://www.bohemiancoding.com/sketch -->
    <title>twitter</title>
    <desc>Created with Sketch.</desc>
    <defs></defs>
    <g id="Welcome" stroke="none" stroke-width="1" fill="none" fill-rule="evenodd">
        <g id="Desktop" transform="translate(-983.000000, -15.000000)" fill="#FFFFFF">
            <g id="Twitter_bird_logo_2012" transform="translate(983.000000, 15.000000)">
                <g id="Group" transform="translate(0.062867, 0.010857)">
                    <path d="M7.199,18.848 C15.8209333,18.848 20.5359333,11.6227265 20.5359333,5.35722449 C20.5359333,5.15200122 20.531801,4.94770857 20.5227007,4.74433878 C21.4379473,4.07505796 22.2334407,3.23984898 22.8608807,2.28907347 C22.0209973,2.66670041 21.117174,2.92091265 20.1690373,3.03554082 C21.1368007,2.44853388 21.8797773,1.51996122 22.2302973,0.412997959 C21.324634,0.95609551 20.3216807,1.35082245 19.2537907,1.56393265 C18.3984207,0.642316327 17.1806473,0.0658795918 15.832234,0.0658795918 C13.2436607,0.0658795918 11.1445273,2.18930408 11.1445273,4.80672857 C11.1445273,5.17880286 11.1856513,5.54071796 11.2660747,5.88786735 C7.370258,5.68957714 3.91573467,3.80283061 1.60377467,0.933908163 C1.20121333,1.63461265 0.969089667,2.44855714 0.969089667,3.31705102 C0.969089667,4.96206327 1.79662967,6.41428367 3.05503633,7.2638551 C2.285993,7.23982049 1.563563,7.02627755 0.932136333,6.67083796 C0.931446333,6.69073135 0.931446333,6.71012608 0.931446333,6.73138747 C0.931446333,9.02767318 2.54719633,10.9448895 4.692023,11.3793303 C4.29814033,11.4879483 3.88372633,11.5461891 3.456003,11.5461891 C3.154427,11.5461891 2.86060967,11.5161644 2.57502633,11.4606813 C3.17178433,13.3446283 4.902243,14.7155752 6.953843,14.7538854 C5.34951633,16.0258773 3.32850633,16.7834732 1.13200633,16.7834732 C0.754116333,16.7834732 0.380803333,16.761731 0.0138996667,16.7178387 C2.088423,18.0628836 4.551723,18.8476999 7.199253,18.8476999" id="twitter"></path>
                </g>
            </g>
        </g>
    </g>
</svg>